<mxfile host="app.diagrams.net" modified="2024-04-14T06:12:47.282Z" agent="Mozilla/5.0 (Windows NT 10.0; Win64; x64) AppleWebKit/537.36 (KHTML, like Gecko) Chrome/123.0.0.0 Safari/537.36" etag="XfOSBGGIjQzLasm6MiAP" version="24.2.5" type="device">
  <diagram name="Page-1" id="T_hxxkH_KHOBAqH4aB1k">
    <mxGraphModel dx="1050" dy="522" grid="1" gridSize="10" guides="1" tooltips="1" connect="1" arrows="1" fold="1" page="1" pageScale="1" pageWidth="850" pageHeight="1100" math="0" shadow="0">
      <root>
        <mxCell id="0" />
        <mxCell id="1" parent="0" />
        <mxCell id="eUfQY9kIUvfG8wuNC-_B-15" value="" style="edgeStyle=orthogonalEdgeStyle;rounded=0;orthogonalLoop=1;jettySize=auto;html=1;" parent="1" source="eUfQY9kIUvfG8wuNC-_B-1" target="eUfQY9kIUvfG8wuNC-_B-2" edge="1">
          <mxGeometry relative="1" as="geometry" />
        </mxCell>
        <mxCell id="eUfQY9kIUvfG8wuNC-_B-1" value="Source Data" style="rounded=0;whiteSpace=wrap;html=1;" parent="1" vertex="1">
          <mxGeometry x="365" y="158" width="120" height="60" as="geometry" />
        </mxCell>
        <mxCell id="eUfQY9kIUvfG8wuNC-_B-16" value="" style="edgeStyle=orthogonalEdgeStyle;rounded=0;orthogonalLoop=1;jettySize=auto;html=1;" parent="1" source="eUfQY9kIUvfG8wuNC-_B-2" target="eUfQY9kIUvfG8wuNC-_B-4" edge="1">
          <mxGeometry relative="1" as="geometry" />
        </mxCell>
        <mxCell id="eUfQY9kIUvfG8wuNC-_B-2" value="Data Formatting and Feature Selection" style="rounded=0;whiteSpace=wrap;html=1;" parent="1" vertex="1">
          <mxGeometry x="366" y="268" width="120" height="60" as="geometry" />
        </mxCell>
        <mxCell id="eUfQY9kIUvfG8wuNC-_B-17" value="" style="edgeStyle=orthogonalEdgeStyle;rounded=0;orthogonalLoop=1;jettySize=auto;html=1;" parent="1" source="eUfQY9kIUvfG8wuNC-_B-4" target="eUfQY9kIUvfG8wuNC-_B-5" edge="1">
          <mxGeometry relative="1" as="geometry" />
        </mxCell>
        <mxCell id="eUfQY9kIUvfG8wuNC-_B-4" value="Data Labelling" style="rounded=0;whiteSpace=wrap;html=1;" parent="1" vertex="1">
          <mxGeometry x="365" y="358" width="120" height="60" as="geometry" />
        </mxCell>
        <mxCell id="eUfQY9kIUvfG8wuNC-_B-18" value="" style="edgeStyle=orthogonalEdgeStyle;rounded=0;orthogonalLoop=1;jettySize=auto;html=1;" parent="1" source="eUfQY9kIUvfG8wuNC-_B-5" target="eUfQY9kIUvfG8wuNC-_B-9" edge="1">
          <mxGeometry relative="1" as="geometry" />
        </mxCell>
        <mxCell id="eUfQY9kIUvfG8wuNC-_B-5" value="Feature Extraction" style="rounded=0;whiteSpace=wrap;html=1;" parent="1" vertex="1">
          <mxGeometry x="365" y="458" width="120" height="60" as="geometry" />
        </mxCell>
        <mxCell id="eUfQY9kIUvfG8wuNC-_B-6" value="TF-IDF Vectorizer" style="rounded=0;whiteSpace=wrap;html=1;" parent="1" vertex="1">
          <mxGeometry x="245" y="658" width="120" height="60" as="geometry" />
        </mxCell>
        <mxCell id="eUfQY9kIUvfG8wuNC-_B-8" value="Tokenization" style="rounded=0;whiteSpace=wrap;html=1;" parent="1" vertex="1">
          <mxGeometry x="485" y="658" width="120" height="60" as="geometry" />
        </mxCell>
        <mxCell id="eUfQY9kIUvfG8wuNC-_B-9" value="Feature Scaling" style="rounded=0;whiteSpace=wrap;html=1;" parent="1" vertex="1">
          <mxGeometry x="365" y="558" width="120" height="60" as="geometry" />
        </mxCell>
        <mxCell id="eUfQY9kIUvfG8wuNC-_B-10" value="LSTM" style="rounded=0;whiteSpace=wrap;html=1;" parent="1" vertex="1">
          <mxGeometry x="365" y="758" width="120" height="60" as="geometry" />
        </mxCell>
        <mxCell id="eUfQY9kIUvfG8wuNC-_B-11" value="Linear SVM" style="rounded=0;whiteSpace=wrap;html=1;" parent="1" vertex="1">
          <mxGeometry x="210" y="758" width="120" height="60" as="geometry" />
        </mxCell>
        <mxCell id="eUfQY9kIUvfG8wuNC-_B-12" value="Logistic Regression&lt;span style=&quot;white-space: pre;&quot;&gt;&#x9;&lt;/span&gt;" style="rounded=0;whiteSpace=wrap;html=1;" parent="1" vertex="1">
          <mxGeometry x="50" y="758" width="120" height="60" as="geometry" />
        </mxCell>
        <mxCell id="eUfQY9kIUvfG8wuNC-_B-13" value="Bidirectional LSTM" style="rounded=0;whiteSpace=wrap;html=1;" parent="1" vertex="1">
          <mxGeometry x="530" y="758" width="120" height="60" as="geometry" />
        </mxCell>
        <mxCell id="eUfQY9kIUvfG8wuNC-_B-14" value="CNN" style="rounded=0;whiteSpace=wrap;html=1;" parent="1" vertex="1">
          <mxGeometry x="700" y="758" width="120" height="60" as="geometry" />
        </mxCell>
        <mxCell id="eUfQY9kIUvfG8wuNC-_B-23" value="" style="endArrow=classic;html=1;rounded=0;entryX=0.5;entryY=0;entryDx=0;entryDy=0;" parent="1" target="eUfQY9kIUvfG8wuNC-_B-6" edge="1">
          <mxGeometry width="50" height="50" relative="1" as="geometry">
            <mxPoint x="430" y="618" as="sourcePoint" />
            <mxPoint x="170" y="388" as="targetPoint" />
            <Array as="points">
              <mxPoint x="430" y="618" />
            </Array>
          </mxGeometry>
        </mxCell>
        <mxCell id="eUfQY9kIUvfG8wuNC-_B-24" value="" style="endArrow=classic;html=1;rounded=0;entryX=0.5;entryY=0;entryDx=0;entryDy=0;exitX=0.5;exitY=1;exitDx=0;exitDy=0;" parent="1" source="eUfQY9kIUvfG8wuNC-_B-9" target="eUfQY9kIUvfG8wuNC-_B-8" edge="1">
          <mxGeometry width="50" height="50" relative="1" as="geometry">
            <mxPoint x="250" y="528" as="sourcePoint" />
            <mxPoint x="315" y="668" as="targetPoint" />
            <Array as="points">
              <mxPoint x="430" y="618" />
            </Array>
          </mxGeometry>
        </mxCell>
        <mxCell id="eUfQY9kIUvfG8wuNC-_B-25" value="" style="endArrow=classic;html=1;rounded=0;exitX=0.5;exitY=1;exitDx=0;exitDy=0;entryX=0.5;entryY=0;entryDx=0;entryDy=0;" parent="1" source="eUfQY9kIUvfG8wuNC-_B-6" target="eUfQY9kIUvfG8wuNC-_B-12" edge="1">
          <mxGeometry width="50" height="50" relative="1" as="geometry">
            <mxPoint x="300" y="918" as="sourcePoint" />
            <mxPoint x="420" y="798" as="targetPoint" />
          </mxGeometry>
        </mxCell>
        <mxCell id="eUfQY9kIUvfG8wuNC-_B-26" value="" style="endArrow=classic;html=1;rounded=0;exitX=0.5;exitY=1;exitDx=0;exitDy=0;entryX=0.5;entryY=0;entryDx=0;entryDy=0;" parent="1" source="eUfQY9kIUvfG8wuNC-_B-6" target="eUfQY9kIUvfG8wuNC-_B-11" edge="1">
          <mxGeometry width="50" height="50" relative="1" as="geometry">
            <mxPoint x="370" y="848" as="sourcePoint" />
            <mxPoint x="420" y="798" as="targetPoint" />
          </mxGeometry>
        </mxCell>
        <mxCell id="eUfQY9kIUvfG8wuNC-_B-27" value="" style="endArrow=classic;html=1;rounded=0;exitX=0.5;exitY=1;exitDx=0;exitDy=0;entryX=0.5;entryY=0;entryDx=0;entryDy=0;" parent="1" source="eUfQY9kIUvfG8wuNC-_B-8" target="eUfQY9kIUvfG8wuNC-_B-10" edge="1">
          <mxGeometry width="50" height="50" relative="1" as="geometry">
            <mxPoint x="370" y="848" as="sourcePoint" />
            <mxPoint x="420" y="798" as="targetPoint" />
          </mxGeometry>
        </mxCell>
        <mxCell id="eUfQY9kIUvfG8wuNC-_B-28" value="" style="endArrow=classic;html=1;rounded=0;entryX=0.5;entryY=0;entryDx=0;entryDy=0;" parent="1" target="eUfQY9kIUvfG8wuNC-_B-13" edge="1">
          <mxGeometry width="50" height="50" relative="1" as="geometry">
            <mxPoint x="540" y="718" as="sourcePoint" />
            <mxPoint x="420" y="798" as="targetPoint" />
          </mxGeometry>
        </mxCell>
        <mxCell id="eUfQY9kIUvfG8wuNC-_B-29" value="" style="endArrow=classic;html=1;rounded=0;entryX=0.5;entryY=0;entryDx=0;entryDy=0;" parent="1" target="eUfQY9kIUvfG8wuNC-_B-14" edge="1">
          <mxGeometry width="50" height="50" relative="1" as="geometry">
            <mxPoint x="540" y="718" as="sourcePoint" />
            <mxPoint x="420" y="798" as="targetPoint" />
          </mxGeometry>
        </mxCell>
        <mxCell id="eUfQY9kIUvfG8wuNC-_B-30" value="" style="endArrow=classic;html=1;rounded=0;entryX=0.5;entryY=0;entryDx=0;entryDy=0;" parent="1" target="eUfQY9kIUvfG8wuNC-_B-11" edge="1">
          <mxGeometry width="50" height="50" relative="1" as="geometry">
            <mxPoint x="540" y="718" as="sourcePoint" />
            <mxPoint x="420" y="798" as="targetPoint" />
          </mxGeometry>
        </mxCell>
        <mxCell id="eUfQY9kIUvfG8wuNC-_B-31" value="" style="endArrow=classic;html=1;rounded=0;entryX=0.5;entryY=0;entryDx=0;entryDy=0;" parent="1" target="eUfQY9kIUvfG8wuNC-_B-12" edge="1">
          <mxGeometry width="50" height="50" relative="1" as="geometry">
            <mxPoint x="540" y="718" as="sourcePoint" />
            <mxPoint x="120" y="758" as="targetPoint" />
          </mxGeometry>
        </mxCell>
        <mxCell id="eUfQY9kIUvfG8wuNC-_B-32" value="Normal" style="rounded=0;whiteSpace=wrap;html=1;" parent="1" vertex="1">
          <mxGeometry x="245" y="928" width="120" height="60" as="geometry" />
        </mxCell>
        <mxCell id="eUfQY9kIUvfG8wuNC-_B-33" value="Anomalous" style="rounded=0;whiteSpace=wrap;html=1;" parent="1" vertex="1">
          <mxGeometry x="485" y="928" width="120" height="60" as="geometry" />
        </mxCell>
        <mxCell id="eUfQY9kIUvfG8wuNC-_B-34" value="" style="endArrow=classic;html=1;rounded=0;exitX=0.5;exitY=1;exitDx=0;exitDy=0;entryX=0.5;entryY=0;entryDx=0;entryDy=0;" parent="1" source="eUfQY9kIUvfG8wuNC-_B-12" target="eUfQY9kIUvfG8wuNC-_B-32" edge="1">
          <mxGeometry width="50" height="50" relative="1" as="geometry">
            <mxPoint x="370" y="848" as="sourcePoint" />
            <mxPoint x="420" y="798" as="targetPoint" />
          </mxGeometry>
        </mxCell>
        <mxCell id="eUfQY9kIUvfG8wuNC-_B-35" value="" style="endArrow=classic;html=1;rounded=0;entryX=0.5;entryY=0;entryDx=0;entryDy=0;exitX=0.5;exitY=1;exitDx=0;exitDy=0;" parent="1" source="eUfQY9kIUvfG8wuNC-_B-14" target="eUfQY9kIUvfG8wuNC-_B-33" edge="1">
          <mxGeometry width="50" height="50" relative="1" as="geometry">
            <mxPoint x="370" y="848" as="sourcePoint" />
            <mxPoint x="420" y="798" as="targetPoint" />
          </mxGeometry>
        </mxCell>
        <mxCell id="eUfQY9kIUvfG8wuNC-_B-36" value="" style="endArrow=classic;html=1;rounded=0;exitX=0.5;exitY=1;exitDx=0;exitDy=0;entryX=0.5;entryY=0;entryDx=0;entryDy=0;" parent="1" source="eUfQY9kIUvfG8wuNC-_B-11" target="eUfQY9kIUvfG8wuNC-_B-32" edge="1">
          <mxGeometry width="50" height="50" relative="1" as="geometry">
            <mxPoint x="370" y="848" as="sourcePoint" />
            <mxPoint x="420" y="798" as="targetPoint" />
          </mxGeometry>
        </mxCell>
        <mxCell id="eUfQY9kIUvfG8wuNC-_B-37" value="" style="endArrow=classic;html=1;rounded=0;entryX=0.5;entryY=0;entryDx=0;entryDy=0;exitX=0.5;exitY=1;exitDx=0;exitDy=0;" parent="1" source="eUfQY9kIUvfG8wuNC-_B-10" target="eUfQY9kIUvfG8wuNC-_B-32" edge="1">
          <mxGeometry width="50" height="50" relative="1" as="geometry">
            <mxPoint x="370" y="848" as="sourcePoint" />
            <mxPoint x="420" y="798" as="targetPoint" />
          </mxGeometry>
        </mxCell>
        <mxCell id="eUfQY9kIUvfG8wuNC-_B-38" value="" style="endArrow=classic;html=1;rounded=0;exitX=0.5;exitY=1;exitDx=0;exitDy=0;entryX=0.5;entryY=0;entryDx=0;entryDy=0;" parent="1" source="eUfQY9kIUvfG8wuNC-_B-13" target="eUfQY9kIUvfG8wuNC-_B-32" edge="1">
          <mxGeometry width="50" height="50" relative="1" as="geometry">
            <mxPoint x="370" y="848" as="sourcePoint" />
            <mxPoint x="310" y="908" as="targetPoint" />
          </mxGeometry>
        </mxCell>
        <mxCell id="eUfQY9kIUvfG8wuNC-_B-39" value="" style="endArrow=classic;html=1;rounded=0;entryX=0.5;entryY=0;entryDx=0;entryDy=0;" parent="1" target="eUfQY9kIUvfG8wuNC-_B-32" edge="1">
          <mxGeometry width="50" height="50" relative="1" as="geometry">
            <mxPoint x="760" y="818" as="sourcePoint" />
            <mxPoint x="420" y="798" as="targetPoint" />
          </mxGeometry>
        </mxCell>
        <mxCell id="eUfQY9kIUvfG8wuNC-_B-40" value="" style="endArrow=classic;html=1;rounded=0;entryX=0.5;entryY=0;entryDx=0;entryDy=0;" parent="1" target="eUfQY9kIUvfG8wuNC-_B-33" edge="1">
          <mxGeometry width="50" height="50" relative="1" as="geometry">
            <mxPoint x="590" y="818" as="sourcePoint" />
            <mxPoint x="550" y="908" as="targetPoint" />
          </mxGeometry>
        </mxCell>
        <mxCell id="eUfQY9kIUvfG8wuNC-_B-41" value="" style="endArrow=classic;html=1;rounded=0;entryX=0.5;entryY=0;entryDx=0;entryDy=0;exitX=0.5;exitY=1;exitDx=0;exitDy=0;" parent="1" source="eUfQY9kIUvfG8wuNC-_B-10" target="eUfQY9kIUvfG8wuNC-_B-33" edge="1">
          <mxGeometry width="50" height="50" relative="1" as="geometry">
            <mxPoint x="380" y="858" as="sourcePoint" />
            <mxPoint x="420" y="798" as="targetPoint" />
          </mxGeometry>
        </mxCell>
        <mxCell id="eUfQY9kIUvfG8wuNC-_B-42" value="" style="endArrow=classic;html=1;rounded=0;entryX=0.5;entryY=0;entryDx=0;entryDy=0;" parent="1" target="eUfQY9kIUvfG8wuNC-_B-33" edge="1">
          <mxGeometry width="50" height="50" relative="1" as="geometry">
            <mxPoint x="270" y="818" as="sourcePoint" />
            <mxPoint x="420" y="798" as="targetPoint" />
          </mxGeometry>
        </mxCell>
        <mxCell id="eUfQY9kIUvfG8wuNC-_B-43" value="" style="endArrow=classic;html=1;rounded=0;exitX=0.5;exitY=1;exitDx=0;exitDy=0;" parent="1" source="eUfQY9kIUvfG8wuNC-_B-12" edge="1">
          <mxGeometry width="50" height="50" relative="1" as="geometry">
            <mxPoint x="370" y="848" as="sourcePoint" />
            <mxPoint x="550" y="928" as="targetPoint" />
          </mxGeometry>
        </mxCell>
        <mxCell id="eUfQY9kIUvfG8wuNC-_B-44" value="" style="endArrow=none;dashed=1;html=1;dashPattern=1 3;strokeWidth=2;rounded=0;" parent="1" edge="1">
          <mxGeometry width="50" height="50" relative="1" as="geometry">
            <mxPoint x="10" y="253" as="sourcePoint" />
            <mxPoint x="830" y="253" as="targetPoint" />
          </mxGeometry>
        </mxCell>
        <mxCell id="eUfQY9kIUvfG8wuNC-_B-45" value="" style="endArrow=none;dashed=1;html=1;dashPattern=1 3;strokeWidth=2;rounded=0;" parent="1" edge="1">
          <mxGeometry width="50" height="50" relative="1" as="geometry">
            <mxPoint x="12" y="431" as="sourcePoint" />
            <mxPoint x="832" y="431" as="targetPoint" />
          </mxGeometry>
        </mxCell>
        <mxCell id="eUfQY9kIUvfG8wuNC-_B-46" value="" style="endArrow=none;dashed=1;html=1;dashPattern=1 3;strokeWidth=2;rounded=0;" parent="1" edge="1">
          <mxGeometry width="50" height="50" relative="1" as="geometry">
            <mxPoint x="13" y="444" as="sourcePoint" />
            <mxPoint x="833" y="444" as="targetPoint" />
          </mxGeometry>
        </mxCell>
        <mxCell id="eUfQY9kIUvfG8wuNC-_B-47" value="" style="endArrow=none;dashed=1;html=1;dashPattern=1 3;strokeWidth=2;rounded=0;" parent="1" edge="1">
          <mxGeometry width="50" height="50" relative="1" as="geometry">
            <mxPoint x="15" y="729" as="sourcePoint" />
            <mxPoint x="835" y="729" as="targetPoint" />
          </mxGeometry>
        </mxCell>
        <mxCell id="eUfQY9kIUvfG8wuNC-_B-48" value="" style="endArrow=none;dashed=1;html=1;dashPattern=1 3;strokeWidth=2;rounded=0;" parent="1" edge="1">
          <mxGeometry width="50" height="50" relative="1" as="geometry">
            <mxPoint x="12" y="428" as="sourcePoint" />
            <mxPoint x="12" y="258" as="targetPoint" />
          </mxGeometry>
        </mxCell>
        <mxCell id="eUfQY9kIUvfG8wuNC-_B-49" value="" style="endArrow=none;dashed=1;html=1;dashPattern=1 3;strokeWidth=2;rounded=0;" parent="1" edge="1">
          <mxGeometry width="50" height="50" relative="1" as="geometry">
            <mxPoint x="830" y="427" as="sourcePoint" />
            <mxPoint x="830" y="257" as="targetPoint" />
          </mxGeometry>
        </mxCell>
        <mxCell id="eUfQY9kIUvfG8wuNC-_B-50" value="" style="endArrow=none;dashed=1;html=1;dashPattern=1 3;strokeWidth=2;rounded=0;" parent="1" edge="1">
          <mxGeometry width="50" height="50" relative="1" as="geometry">
            <mxPoint x="14" y="725" as="sourcePoint" />
            <mxPoint x="14" y="445" as="targetPoint" />
          </mxGeometry>
        </mxCell>
        <mxCell id="eUfQY9kIUvfG8wuNC-_B-51" value="" style="endArrow=none;dashed=1;html=1;dashPattern=1 3;strokeWidth=2;rounded=0;" parent="1" edge="1">
          <mxGeometry width="50" height="50" relative="1" as="geometry">
            <mxPoint x="830" y="724" as="sourcePoint" />
            <mxPoint x="830" y="444" as="targetPoint" />
          </mxGeometry>
        </mxCell>
        <mxCell id="eUfQY9kIUvfG8wuNC-_B-52" value="" style="endArrow=none;dashed=1;html=1;dashPattern=1 3;strokeWidth=2;rounded=0;" parent="1" edge="1">
          <mxGeometry width="50" height="50" relative="1" as="geometry">
            <mxPoint x="15" y="745" as="sourcePoint" />
            <mxPoint x="835" y="745" as="targetPoint" />
          </mxGeometry>
        </mxCell>
        <mxCell id="eUfQY9kIUvfG8wuNC-_B-53" value="" style="endArrow=none;dashed=1;html=1;dashPattern=1 3;strokeWidth=2;rounded=0;" parent="1" edge="1">
          <mxGeometry width="50" height="50" relative="1" as="geometry">
            <mxPoint x="15" y="868" as="sourcePoint" />
            <mxPoint x="835" y="868" as="targetPoint" />
          </mxGeometry>
        </mxCell>
        <mxCell id="eUfQY9kIUvfG8wuNC-_B-54" value="" style="endArrow=none;dashed=1;html=1;dashPattern=1 3;strokeWidth=2;rounded=0;" parent="1" edge="1">
          <mxGeometry width="50" height="50" relative="1" as="geometry">
            <mxPoint x="15" y="864" as="sourcePoint" />
            <mxPoint x="15" y="744" as="targetPoint" />
          </mxGeometry>
        </mxCell>
        <mxCell id="eUfQY9kIUvfG8wuNC-_B-55" value="" style="endArrow=none;dashed=1;html=1;dashPattern=1 3;strokeWidth=2;rounded=0;" parent="1" edge="1">
          <mxGeometry width="50" height="50" relative="1" as="geometry">
            <mxPoint x="832" y="865" as="sourcePoint" />
            <mxPoint x="832" y="745" as="targetPoint" />
          </mxGeometry>
        </mxCell>
        <mxCell id="A5fSX-imJSngicMHDfxJ-1" value="&lt;font style=&quot;font-size: 16px;&quot;&gt;Data Preprocessing&lt;/font&gt;" style="text;html=1;align=center;verticalAlign=middle;whiteSpace=wrap;rounded=0;" vertex="1" parent="1">
          <mxGeometry x="65" y="320" width="170" height="52" as="geometry" />
        </mxCell>
        <mxCell id="A5fSX-imJSngicMHDfxJ-2" value="&lt;font style=&quot;font-size: 16px;&quot;&gt;Feature Engineering&lt;/font&gt;" style="text;html=1;align=center;verticalAlign=middle;whiteSpace=wrap;rounded=0;" vertex="1" parent="1">
          <mxGeometry x="50" y="567" width="200" height="42" as="geometry" />
        </mxCell>
        <mxCell id="A5fSX-imJSngicMHDfxJ-3" value="&lt;font style=&quot;font-size: 16px;&quot;&gt;Model&lt;/font&gt;" style="text;html=1;align=center;verticalAlign=middle;whiteSpace=wrap;rounded=0;" vertex="1" parent="1">
          <mxGeometry x="40" y="830" width="80" height="30" as="geometry" />
        </mxCell>
      </root>
    </mxGraphModel>
  </diagram>
</mxfile>
